<?xml version="1.0" encoding="UTF-8"?>
<svg width="16px" height="16px" viewBox="0 0 16 16" version="1.1" xmlns="http://www.w3.org/2000/svg" xmlns:xlink="http://www.w3.org/1999/xlink">
    <!-- Generator: Sketch 52.5 (67469) - http://www.bohemiancoding.com/sketch -->
    <title>chakangengduo-2</title>
    <desc>Created with Sketch.</desc>
    <g id="20190715-概览" stroke="none" stroke-width="1" fill="none" fill-rule="evenodd">
        <g id="20190724-产品使用管理员概览（天跨年）--copy" transform="translate(-646.000000, -479.000000)" fill="#999999">
            <g id="分组-11" transform="translate(261.000000, 164.000000)">
                <g id="基本信息标题">
                    <g id="分组-5" transform="translate(325.000000, 313.000000)">
                        <g id="chakangengduo-2" transform="translate(60.000000, 2.000000)">
                            <path d="M15.9930367,8 C15.9930367,3.59561858 12.4097213,0.0124205379 8.00545721,0.0124205379 C3.60119315,0.0124205379 0.0178777506,3.59559902 0.0178777506,8 C0.0178777506,12.404401 3.60119315,15.9875795 8.00547677,15.9875795 C12.4097604,15.9875795 15.9930367,12.404401 15.9930367,8 Z M0.803540342,8 C0.803540342,4.02885086 4.03444499,0.79808313 8.00545721,0.79808313 C11.9764694,0.79808313 15.2073741,4.02885086 15.2073741,8 C15.2073741,11.9711491 11.976489,15.2019169 8.00545721,15.2019169 C4.03442543,15.2019169 0.803540342,11.9711491 0.803540342,8 Z" id="形状" fill-rule="nonzero"></path>
                            <path d="M10.6905819,7.59782885 C10.8440098,7.44438142 10.8440098,7.19579462 10.6905819,7.04232763 C10.537154,6.88886064 10.2885477,6.8888802 10.1350807,7.04232763 L8.00543765,9.17197066 L5.87581418,7.04234719 C5.72238631,6.88889976 5.47377995,6.88889976 5.32031296,7.04234719 C5.24652753,7.11593191 5.20511476,7.21589134 5.20524205,7.3200978 C5.20512515,7.42430029 5.24654472,7.52425212 5.32033252,7.59782885 L7.7277066,10.0052029 C7.88113447,10.1586504 8.12974083,10.1586504 8.28320782,10.0052029 L10.6905819,7.59782885 Z" id="路径"></path>
                        </g>
                    </g>
                </g>
            </g>
        </g>
    </g>
</svg>