<?xml version="1.0" encoding="UTF-8"?>
<svg width="64px" height="64px" viewBox="0 0 64 64" version="1.1" xmlns="http://www.w3.org/2000/svg" xmlns:xlink="http://www.w3.org/1999/xlink">
    <!-- Generator: Sketch 52.5 (67469) - http://www.bohemiancoding.com/sketch -->
    <title>Group 3</title>
    <desc>Created with Sketch.</desc>
    <defs>
        <polygon id="path-1" points="0 0 64 0 64 63.9999875 0 63.9999875"></polygon>
    </defs>
    <g id="广告位管理" stroke="none" stroke-width="1" fill="none" fill-rule="evenodd">
        <g id="20190617-23广告位管理-常宝雨-视觉稿-第三版--" transform="translate(-781.000000, -185.000000)">
            <g id="Group-2" transform="translate(582.000000, 185.000000)">
                <g id="完成" transform="translate(199.000000, 0.000000)">
                    <g id="Group-3">
                        <mask id="mask-2" fill="white">
                            <use xlink:href="#path-1"></use>
                        </mask>
                        <g id="Clip-2"></g>
                        <path d="M32,3.4249875 C16.25,3.4249875 3.43125,16.2437375 3.43125,31.9999875 C3.43125,47.7499875 16.24375,60.5687375 32,60.5687375 C47.75625,60.5687375 60.575,47.7499875 60.575,31.9937375 C60.575,16.2374875 47.75625,3.4249875 32,3.4249875 M32,63.9999875 C14.35625,63.9999875 0,49.6437375 0,31.9999875 C0,14.3562375 14.35625,-1.25e-05 32,-1.25e-05 C49.64375,-1.25e-05 64,14.3562375 64,31.9999875 C64,49.6437375 49.64375,63.9999875 32,63.9999875" id="Fill-1" fill="#31C37C" mask="url(#mask-2)"></path>
                    </g>
                    <path d="M42.6393457,25.1359713 L30.0875314,37.5863435 L22.4609536,30.023849 C21.7636306,29.3318153 20.6391187,29.3318153 19.9417957,30.023849 C19.2444727,30.7158827 19.2444727,31.831865 19.9417957,32.5238987 L28.8248114,41.3271286 C29.5221344,42.0191623 30.6466463,42.0191623 31.3439693,41.3271286 L45.1522214,27.6236142 C45.8495444,26.9315805 45.8495444,25.8155982 45.1522214,25.1235645 C44.4611806,24.4439376 43.3241043,24.4439376 42.6393457,25.1359713" id="Fill-4" fill="#31C37C"></path>
                </g>
            </g>
        </g>
    </g>
</svg>