<?xml version="1.0" encoding="UTF-8"?>
<svg width="88px" height="88px" viewBox="0 0 88 88" version="1.1" xmlns="http://www.w3.org/2000/svg" xmlns:xlink="http://www.w3.org/1999/xlink">
    <!-- Generator: Sketch 49 (51002) - http://www.bohemiancoding.com/sketch -->
    <title>Husband</title>
    <desc>Created with Sketch.</desc>
    <defs>
        <circle id="path-1" cx="44" cy="44" r="44"></circle>
    </defs>
    <g id="切图" stroke="none" stroke-width="1" fill="none" fill-rule="evenodd">
        <g id="Husband">
            <mask id="mask-2" fill="white">
                <use xlink:href="#path-1"></use>
            </mask>
            <use id="Mask" fill="#EAF4FF" xlink:href="#path-1"></use>
            <g id="Group-2" mask="url(#mask-2)">
                <g transform="translate(4.400000, 9.900000)" id="XMLID_16_-Copy">
                    <g>
                        <g id="XMLID_10_">
                            <rect id="XMLID_65_" fill="#F6CAC8" fill-rule="nonzero" x="31.9" y="47.3" width="13.2" height="15.0687845"></rect>
                            <path d="M38.5,111.1 C59.1554496,111.1 75.9,98.5415872 75.9,83.05 C75.9,69.5667965 63.1072871,58.7932814 46.2,56.1 C43.891626,60.9877489 41.1778449,61.6 38.5,61.6 C35.8763001,61.6 32.9554949,61.0118505 30.8,56.1 C13.8163544,58.7495697 1.1,69.5261877 1.1,83.05 C1.1,98.5415872 17.8445504,111.1 38.5,111.1 Z" id="Oval-5" fill="#86B1F8"></path>
                            <path d="M54.912,28.4632597 L55.44,22.1185083 C55.44,13.7469613 47.432,7.04972376 39.16,7.04972376 C30.8,7.04972376 22.88,13.8350829 22.88,22.1185083 L23.408,28.4632597 C22.968,28.5513812 22.528,28.8157459 22.176,29.0801105 C21.56,29.6088398 21.12,30.4900552 21.12,31.3712707 L21.12,34.5436464 C21.12,36.2179558 22.44,37.539779 24.112,37.539779 C24.112,45.3825967 33.528,52.8729282 39.248,52.8729282 C44.176,52.8729282 52.096,47.1450276 53.944,40.4477901 C53.944,40.4477901 53.944,40.4477901 53.944,40.4477901 C54.12,39.9190608 54.208,39.3022099 54.296,38.7734807 C54.384,38.3328729 54.384,37.9803867 54.384,37.539779 C56.056,37.539779 57.376,36.2179558 57.376,34.5436464 L57.376,31.3712707 C57.2,29.961326 56.232,28.7276243 54.912,28.4632597 Z" id="XMLID_37_" fill="#FCDBDA" fill-rule="nonzero"></path>
                            <path d="M57.464,7.3140884 C57.376,6.43287293 56.408,6.52099448 55.528,6.60911602 C52.712,6.78535912 52.008,5.8160221 46.2,2.37928177 C40.392,-1.05745856 34.496,0.352486188 30.536,3.26049724 C12.408,7.49033149 23.056,32.0762431 23.056,32.0762431 C23.056,32.0762431 22.968,19.1223757 28.6,15.1569061 C38.016,21.589779 47.608,21.9422652 53.064,18.0649171 C55.176,22.9997238 54.472,31.9881215 54.472,31.9881215 C54.472,31.9881215 58.08,22.8234807 56.144,14.7162983 C57.288,12.7776243 57.816,10.2220994 57.464,7.3140884 Z" id="XMLID_36_" fill="#333333" fill-rule="nonzero"></path>
                        </g>
                    </g>
                </g>
            </g>
            <g id="Group-5" mask="url(#mask-2)">
                <g transform="translate(33.440002, 39.600000)">
                    <path d="M3.3,1.52758382 C5.12253967,1.52758382 6.6,2.59921927 6.6,2.03677843 C6.6,1.4743376 5.12253967,0 3.3,0 C1.47746033,0 0,1.4743376 0,2.03677843 C0,2.59921927 1.47746033,1.52758382 3.3,1.52758382 Z" id="Oval" fill="#333333"></path>
                    <path d="M17.6,1.52758382 C19.4225397,1.52758382 20.9,2.59921927 20.9,2.03677843 C20.9,1.4743376 19.4225397,0 17.6,0 C15.7774603,0 14.3,1.4743376 14.3,2.03677843 C14.3,2.59921927 15.7774603,1.52758382 17.6,1.52758382 Z" id="Oval-Copy" fill="#333333"></path>
                    <path d="M10.45,16.5 C12.8138298,16.5 14.4638298,15.4 15.4,13.2 L5.5,13.2 C6.43617021,15.4 8.08617021,16.5 10.45,16.5 Z" id="Oval-2" fill="#FFFFFF"></path>
                </g>
            </g>
            <path d="M35.2,66 L36.2266667,66 C36.2266667,69.0375661 39.2144198,71.5 42.9,71.5 C46.5855802,71.5 49.5733333,69.0375661 49.5733333,66 L50.6,66 C50.6,69.6450793 47.1525926,72.6 42.9,72.6 C38.6474074,72.6 35.2,69.6450793 35.2,66 Z" id="Combined-Shape" fill="#FFFFFF" mask="url(#mask-2)"></path>
            <rect id="Rectangle-3" fill="#FFFFFF" opacity="0.65" mask="url(#mask-2)" x="27.5" y="78.1" width="6.6" height="1.1" rx="0.55"></rect>
        </g>
    </g>
</svg>