<?xml version="1.0" encoding="UTF-8"?>
<svg width="48px" height="48px" viewBox="0 0 48 48" version="1.1" xmlns="http://www.w3.org/2000/svg" xmlns:xlink="http://www.w3.org/1999/xlink">
    <!-- Generator: Sketch 52.5 (67469) - http://www.bohemiancoding.com/sketch -->
    <title>椭圆形</title>
    <desc>Created with Sketch.</desc>
    <g id="20190805-概览" stroke="none" stroke-width="1" fill="none" fill-rule="evenodd">
        <g id="20190805-消息中心1-" transform="translate(-297.000000, -188.000000)">
            <g id="yunhang" transform="translate(297.000000, 188.000000)">
                <circle id="椭圆形" fill="#F4F6F9" fill-rule="nonzero" cx="24" cy="24" r="24"></circle>
                <path d="M32.9102783,13 L15.0702338,13 C13.3791155,12.9999914 12.0066996,14.4083932 12.0013793,16.1493226 L12.0013793,28.1417387 C12.0127512,29.8782276 13.383399,31.2797417 15.0702338,31.2797022 L23.2802817,31.2797022 L23.2802817,33.537687 L18.3918378,33.537687 C18.1343966,33.531847 17.8940458,33.6698963 17.7636597,33.8984911 C17.6332736,34.1270859 17.6332736,34.410423 17.7636597,34.6390178 C17.8940458,34.8676126 18.1343966,35.0056618 18.3918378,34.9998218 L29.5890191,34.9998218 C29.975126,34.991063 30.2836897,34.6663324 30.2836897,34.2687544 C30.2836897,33.8711765 29.975126,33.5464458 29.5890191,33.537687 L24.7005752,33.537687 L24.7005752,31.2797022 L32.9102783,31.2797022 C33.7247379,31.2797022 34.5058393,30.946628 35.0817491,30.353752 C35.657659,29.7608761 35.9812018,28.9567637 35.9812018,28.1183105 L35.9812018,16.1613917 C35.9812018,15.3229385 35.657659,14.5188261 35.0817491,13.9259502 C34.5058392,13.3330742 33.7247379,13 32.9102783,13 Z M34.5815972,26.5482638 L13.3992597,26.5482638 L13.3992597,16.1613917 C13.3991683,15.7051047 13.5751765,15.2674738 13.8885548,14.9447969 C14.2019331,14.62212 14.6270042,14.4408364 15.0702338,14.4408364 L32.9102783,14.4408364 C33.3510962,14.4474356 33.7715594,14.6329244 34.080236,14.9569675 L34.1219586,14.9786209 C34.4164383,15.2978743 34.5809227,15.7211359 34.5815972,16.1613917 L34.5815972,26.5482638 Z" id="形状" fill="#999999" fill-rule="nonzero"></path>
                <path d="M32.3489193,20.9925776 L28.1463127,20.9925776 C28.0029647,20.992587 27.8682667,21.0631734 27.783912,21.1824883 L26.9563557,22.3556748 L26.2453469,20.1669098 C26.1809058,19.9709348 25.9976351,19.8430679 25.7969408,19.8540594 C25.5962464,19.8650509 25.4271887,20.0122138 25.3833091,20.2141213 L24.8419494,22.751115 L24.535064,21.3028242 L23.6119939,16.2480052 C23.5741618,16.0395951 23.4032497,15.8845386 23.1976536,15.8721032 C22.9920575,15.8596679 22.8046834,15.9930537 22.7434046,16.1954691 L21.3048359,20.9315222 L15.7371062,20.9315222 C15.4895393,20.9315222 15.2888466,21.1381272 15.2888466,21.3929874 C15.2888466,21.6478476 15.4895393,21.8544526 15.7371062,21.8544526 L21.6334447,21.8544526 C21.8295065,21.8544917 22.0028434,21.7233553 22.0613603,21.530717 L23.0613241,18.2362103 L23.6533717,21.478181 C23.6533717,21.4824407 23.6550958,21.4867003 23.6561302,21.49096 L24.398862,25.0098098 C24.4435988,25.2217897 24.625715,25.3730748 24.8364323,25.3733024 C25.0469669,25.373351 25.2291636,25.2225612 25.2743476,25.0108747 L25.9074281,22.0436534 L26.3791352,23.4990437 C26.4323281,23.6628942 26.5699668,23.7824349 26.7358129,23.8088221 C26.9016591,23.8352093 27.0679317,23.7640229 27.1666929,23.6243492 L28.3735458,21.9169279 L32.3489193,21.9169279 C32.5964863,21.9169279 32.797179,21.7103229 32.797179,21.4554627 C32.797179,21.2006025 32.5964863,20.9939975 32.3489193,20.9939975 L32.3489193,20.9925776 Z" id="路径" fill="#999999"></path>
            </g>
        </g>
    </g>
</svg>